<?xml version="1.0" standalone="no"?><!DOCTYPE svg PUBLIC "-//W3C//DTD SVG 1.1//EN" "http://www.w3.org/Graphics/SVG/1.1/DTD/svg11.dtd"><svg class="icon" height="512" viewBox="0 0 1024 1024" version="1.1" xmlns="http://www.w3.org/2000/svg"><path d="M830.816 198.56a444.096 444.096 0 0 0-356.224-133.536c-14.848 9.664-92.96 69.376-122.912 273.12 133.056-44 289.76-136.928 479.104-139.584zM280.448 356.608c21.6-167.84 77.024-245.056 107.392-275.744a446.592 446.592 0 0 0-277.984 234.912c52.16 43.424 108.672 51.36 170.56 40.832z m64.416 40.352a1262.048 1262.048 0 0 0-4.352 77.76h614.976a442.72 442.72 0 0 0-68.96-205.984c-195.68-40.032-378.24 82.528-541.696 128.224z m-69.952 14.304c-64.768 7.52-126.144-3.808-183.744-50.56a444.384 444.384 0 0 0-24 114.016h204.672c0.512-22.304 1.568-43.424 3.072-63.488z m72.064 239.456c156.096 48.992 330.176 172.832 516.512 130.72l0.064 0.256a443.424 443.424 0 0 0 91.936-238.464H340.32a1225.92 1225.92 0 0 0 6.656 107.488z m127.328 302.176a443.52 443.52 0 0 0 318.528-98.688c-171.296-7.52-314.496-95.776-436.992-141.216 32.192 179.936 103.552 231.04 118.464 239.904zM122.368 726.176a446.464 446.464 0 0 0 266.336 211.136c-28.064-28.832-78.656-98.976-103.168-245.312-59.168-12.224-113.248-6.496-163.2 34.176z m155.424-91.68a1169.312 1169.312 0 0 1-5.824-91.264H67.2a443.392 443.392 0 0 0 33.76 139.232c55.456-46.368 114.528-56.672 176.832-47.968z" fill="#5D5D5D" /></svg>